<?xml version="1.0" encoding="UTF-8"?>
<svg width="510px" height="880px" viewBox="0 0 510 880" version="1.1" xmlns="http://www.w3.org/2000/svg" xmlns:xlink="http://www.w3.org/1999/xlink">
    <!-- Generator: Sketch 50.2 (55047) - http://www.bohemiancoding.com/sketch -->
    <title>alignContent</title>
    <desc>Created with Sketch.</desc>
    <defs></defs>
    <g id="alignContent" stroke="none" stroke-width="1" fill="none" fill-rule="evenodd">
        <g id="Group-2" transform="translate(10.000000, 10.000000)">
            <rect id="Rectangle" fill="#F6F8FA" x="0" y="0" width="240" height="240" rx="8"></rect>
            <g id="Group" transform="translate(8.000000, 8.000000)">
                <rect id="Rectangle-2" fill="#FF576B" x="0" y="0" width="86.8217054" height="60" rx="8"></rect>
                <rect id="Rectangle-2" fill="#6DABF4" x="100.713178" y="0" width="123.286822" height="60" rx="8"></rect>
                <rect id="Rectangle-2" fill="#50E3C2" x="0" y="68" width="224" height="60" rx="8"></rect>
            </g>
            <text id=".start" font-family="Helvetica-Bold, Helvetica" font-size="30" font-weight="bold" letter-spacing="0.4615385" fill="#656565">
                <tspan x="81.935697" y="269">.start</tspan>
            </text>
        </g>
        <g id="Group-2" transform="translate(260.000000, 10.000000)">
            <rect id="Rectangle" fill="#F6F8FA" x="0" y="0" width="240" height="240" rx="8"></rect>
            <g id="Group" transform="translate(8.000000, 104.000000)">
                <rect id="Rectangle-2" fill="#FF576B" x="0" y="0" width="86.8217054" height="60" rx="8"></rect>
                <rect id="Rectangle-2" fill="#6DABF4" x="100.713178" y="0" width="123.286822" height="60" rx="8"></rect>
                <rect id="Rectangle-2" fill="#50E3C2" x="0" y="68" width="224" height="60" rx="8"></rect>
            </g>
            <text id=".end" font-family="Helvetica-Bold, Helvetica" font-size="30" font-weight="bold" letter-spacing="0.4615385" fill="#656565">
                <tspan x="88.2419621" y="269">.end</tspan>
            </text>
        </g>
        <g id="Group-2" transform="translate(10.000000, 300.000000)">
            <rect id="Rectangle" fill="#F6F8FA" x="0" y="0" width="240" height="240" rx="8"></rect>
            <g id="Group" transform="translate(8.000000, 56.000000)">
                <rect id="Rectangle-2" fill="#FF576B" x="0" y="0" width="86.8217054" height="60" rx="8"></rect>
                <rect id="Rectangle-2" fill="#6DABF4" x="100.713178" y="0" width="123.286822" height="60" rx="8"></rect>
                <rect id="Rectangle-2" fill="#50E3C2" x="0" y="68" width="224" height="60" rx="8"></rect>
            </g>
            <text id=".start" font-family="Helvetica-Bold, Helvetica" font-size="30" font-weight="bold" letter-spacing="0.4615385" fill="#656565">
                <tspan x="81.935697" y="269">.start</tspan>
            </text>
        </g>
        <g id="Group-2" transform="translate(260.000000, 300.000000)">
            <rect id="Rectangle" fill="#F6F8FA" x="0" y="0" width="240" height="240" rx="8"></rect>
            <g id="Group" transform="translate(8.000000, 8.000000)">
                <g id="Group-3">
                    <rect id="Rectangle-2" fill="#FF576B" x="0" y="0" width="86.8217054" height="60" rx="8"></rect>
                    <rect id="Rectangle-2" fill="#6DABF4" x="100.713178" y="0" width="123.286822" height="60" rx="8"></rect>
                </g>
                <rect id="Rectangle-2" fill="#50E3C2" x="0" y="164" width="224" height="60" rx="8"></rect>
            </g>
            <text id=".spaceBetween" font-family="Helvetica-Bold, Helvetica" font-size="30" font-weight="bold" letter-spacing="0.4615385" fill="#656565">
                <tspan x="8.61621069" y="269">.spaceBetween</tspan>
            </text>
        </g>
        <g id="Group-2" transform="translate(10.000000, 590.000000)">
            <rect id="Rectangle" fill="#F6F8FA" x="0" y="0" width="240" height="240" rx="8"></rect>
            <g id="Group" transform="translate(8.000000, 30.000000)">
                <rect id="Rectangle-2" fill="#FF576B" x="0" y="0" width="86.8217054" height="60" rx="8"></rect>
                <rect id="Rectangle-2" fill="#6DABF4" x="100.713178" y="0" width="123.286822" height="60" rx="8"></rect>
                <rect id="Rectangle-2" fill="#50E3C2" x="0" y="120" width="224" height="60" rx="8"></rect>
            </g>
            <text id=".spaceAround" font-family="Helvetica-Bold, Helvetica" font-size="30" font-weight="bold" letter-spacing="0.4615385" fill="#656565">
                <tspan x="17.2112378" y="269">.spaceAround</tspan>
            </text>
        </g>
        <g id="Group-2" transform="translate(260.000000, 590.000000)">
            <rect id="Rectangle" fill="#F6F8FA" x="0" y="0" width="240" height="240" rx="8"></rect>
            <g id="Group" transform="translate(8.000000, 40.000000)">
                <rect id="Rectangle-2" fill="#FF576B" x="0" y="0" width="86.8217054" height="60" rx="8"></rect>
                <rect id="Rectangle-2" fill="#6DABF4" x="100.713178" y="0" width="123.286822" height="60" rx="8"></rect>
                <rect id="Rectangle-2" fill="#50E3C2" x="0" y="100" width="224" height="60" rx="8"></rect>
            </g>
            <text id=".spaceEvenly" font-family="Helvetica-Bold, Helvetica" font-size="30" font-weight="bold" letter-spacing="0.4615385" fill="#656565">
                <tspan x="22.1697338" y="269">.spaceEvenly</tspan>
            </text>
        </g>
    </g>
</svg>