<svg width="240px" height="250px" version="1.1" xmlns="http://www.w3.org/2000/svg" xmlns:xlink="http://www.w3.org/1999/xlink">
    <defs></defs>
    <style>
        .bodyText { 
            font-family: -apple-system, BlinkMacSystemFont, "Segoe UI", Roboto, Helvetica, Arial, sans-serif, "Apple Color Emoji", "Segoe UI Emoji", "Segoe UI Symbol";
            font-size: 24pt;
            font-weight: normal;
            fill: #D73A49;
        }
        rect.section2 {
            fill: #88EEEE;
        }
        .section2 {
            fill: #44AAAA;
        }
        rect.section3 {
            fill: #EE88EE;
        }
        .section3 {
            fill: #AA44AA;
        }
    </style>
    <rect fill="#F6F8FA" width="100%" height="100%" rx="8"></rect>

    <svg x="10" y="10" width="50" height="50">
        <rect fill="#FFD8DC" rx="8" width="100%" height="100%"></rect>
        <text x="50%" y ="55%" class="bodyText" text-anchor="middle" alignment-baseline="middle" >1</text>
    </svg>

    <svg x="70" y="10" width="50" height="50">
        <rect fill="#FFD8DC" rx="8" width="100%" height="100%"></rect>
        <text x="50%" y ="55%" class="bodyText" text-anchor="middle" alignment-baseline="middle" >1</text>
    </svg>

    <svg x="130" y="10" width="50" height="50">
        <rect fill="#FFD8DC" rx="8" width="100%" height="100%"></rect>
        <text x="50%" y ="55%" class="bodyText" text-anchor="middle" alignment-baseline="middle" >1</text>
    </svg>

    <svg x="10" y="70" width="150" height="50">
        <rect fill="#FFD8DC" rx="8" width="100%" height="100%" class="section2"></rect>
        <text x="50%" y ="55%" class="bodyText section2" text-anchor="middle" alignment-baseline="middle" >2</text>
    </svg>

    <svg x="10" y="130" width="150" height="50">
        <rect fill="#FFD8DC" rx="8" width="100%" height="100%" class="section2"></rect>
        <text x="50%" y ="55%" class="bodyText section2" text-anchor="middle" alignment-baseline="middle" >2</text>
    </svg>


    <svg x="10" y="190" width="50" height="50">
        <rect fill="#FFD8DC" rx="8" width="100%" height="100%" class="section3"></rect>
        <text x="50%" y ="55%" class="bodyText section3" text-anchor="middle" alignment-baseline="middle" >3</text>
    </svg>

    <svg x="70" y="190" width="50" height="50">
        <rect fill="#FFD8DC" rx="8" width="100%" height="100%" class="section3"></rect>
        <text x="50%" y ="55%" class="bodyText section3" text-anchor="middle" alignment-baseline="middle" >3</text>
    </svg>
</svg>