<?xml version="1.0" encoding="UTF-8"?>
<svg width="510px" height="670px" viewBox="0 0 510 670" version="1.1" xmlns="http://www.w3.org/2000/svg" xmlns:xlink="http://www.w3.org/1999/xlink">
    <!-- Generator: Sketch 50.2 (55047) - http://www.bohemiancoding.com/sketch -->
    <title>justifyContents</title>
    <desc>Created with Sketch.</desc>
    <defs></defs>
    <g id="justifyContents" stroke="none" stroke-width="1" fill="none" fill-rule="evenodd">
        <g id="Group-2" transform="translate(10.000000, 10.000000)">
            <rect id="Rectangle" fill="#F6F8FA" x="0" y="0" width="490" height="60" rx="8"></rect>
            <g id="Group" transform="translate(8.000000, 8.000000)">
                <rect id="Rectangle-2" fill="#FF576B" x="0" y="0" width="106" height="44" rx="8"></rect>
                <rect id="Rectangle-2" fill="#6DABF4" x="114" y="0" width="68" height="44" rx="8"></rect>
                <rect id="Rectangle-2" fill="#50E3C2" x="190" y="0" width="144" height="44" rx="8"></rect>
            </g>
            <text id=".start" font-family="Helvetica-Bold, Helvetica" font-size="30" font-weight="bold" letter-spacing="0.4615385" fill="#656565">
                <tspan x="206.935697" y="89">.start</tspan>
            </text>
        </g>
        <g id="Group-2" transform="translate(10.000000, 120.000000)">
            <rect id="Rectangle" fill="#F6F8FA" x="0" y="0" width="490" height="60" rx="8"></rect>
            <g id="Group" transform="translate(148.000000, 8.000000)">
                <rect id="Rectangle-2" fill="#FF576B" x="0" y="0" width="106" height="44" rx="8"></rect>
                <rect id="Rectangle-2" fill="#6DABF4" x="114" y="0" width="68" height="44" rx="8"></rect>
                <rect id="Rectangle-2" fill="#50E3C2" x="190" y="0" width="144" height="44" rx="8"></rect>
            </g>
            <text id=".end" font-family="Helvetica-Bold, Helvetica" font-size="30" font-weight="bold" letter-spacing="0.4615385" fill="#656565">
                <tspan x="213.241962" y="89">.end</tspan>
            </text>
        </g>
        <g id="Group-2" transform="translate(10.000000, 230.000000)">
            <rect id="Rectangle" fill="#F6F8FA" x="0" y="0" width="490" height="60" rx="8"></rect>
            <g id="Group" transform="translate(78.000000, 8.000000)">
                <rect id="Rectangle-2" fill="#FF576B" x="0" y="0" width="106" height="44" rx="8"></rect>
                <rect id="Rectangle-2" fill="#6DABF4" x="114" y="0" width="68" height="44" rx="8"></rect>
                <rect id="Rectangle-2" fill="#50E3C2" x="190" y="0" width="144" height="44" rx="8"></rect>
            </g>
            <text id=".center" font-family="Helvetica-Bold, Helvetica" font-size="30" font-weight="bold" letter-spacing="0.4615385" fill="#656565">
                <tspan x="194.195162" y="89">.center</tspan>
            </text>
        </g>
        <g id="Group-2" transform="translate(10.000000, 340.000000)">
            <rect id="Rectangle" fill="#F6F8FA" x="0" y="0" width="490" height="60" rx="8"></rect>
            <g id="Group" transform="translate(8.000000, 8.000000)">
                <rect id="Rectangle-2" fill="#FF576B" x="0" y="0" width="106" height="44" rx="8"></rect>
                <rect id="Rectangle-2" fill="#6DABF4" x="184" y="0" width="68" height="44" rx="8"></rect>
                <rect id="Rectangle-2" fill="#50E3C2" x="330" y="0" width="144" height="44" rx="8"></rect>
            </g>
            <text id=".spaceBetween" font-family="Helvetica-Bold, Helvetica" font-size="30" font-weight="bold" letter-spacing="0.4615385" fill="#656565">
                <tspan x="133.616211" y="89">.spaceBetween</tspan>
            </text>
        </g>
        <g id="Group-2" transform="translate(10.000000, 450.000000)">
            <rect id="Rectangle" fill="#F6F8FA" x="0" y="0" width="490" height="60" rx="8"></rect>
            <g id="Group" transform="translate(32.000000, 8.000000)">
                <rect id="Rectangle-2" fill="#FF576B" x="0" y="0" width="106" height="44" rx="8"></rect>
                <rect id="Rectangle-2" fill="#6DABF4" x="160" y="0" width="68" height="44" rx="8"></rect>
                <rect id="Rectangle-2" fill="#50E3C2" x="282" y="0" width="144" height="44" rx="8"></rect>
            </g>
            <text id=".spaceAround" font-family="Helvetica-Bold, Helvetica" font-size="30" font-weight="bold" letter-spacing="0.4615385" fill="#656565">
                <tspan x="142.211238" y="89">.spaceAround</tspan>
            </text>
        </g>
        <g id="Group-2" transform="translate(10.000000, 560.000000)">
            <rect id="Rectangle" fill="#F6F8FA" x="0" y="0" width="490" height="60" rx="8"></rect>
            <g id="Group" transform="translate(44.000000, 8.000000)">
                <rect id="Rectangle-2" fill="#FF576B" x="0" y="0" width="106" height="44" rx="8"></rect>
                <rect id="Rectangle-2" fill="#6DABF4" x="148" y="0" width="68" height="44" rx="8"></rect>
                <rect id="Rectangle-2" fill="#50E3C2" x="249" y="0" width="144" height="44" rx="8"></rect>
            </g>
            <text id=".spaceEvenly" font-family="Helvetica-Bold, Helvetica" font-size="30" font-weight="bold" letter-spacing="0.4615385" fill="#656565">
                <tspan x="147.169734" y="89">.spaceEvenly</tspan>
            </text>
        </g>
    </g>
</svg>